<mxfile host="app.diagrams.net" modified="2024-06-16T16:47:35.285Z" agent="Mozilla/5.0 (Macintosh; Intel Mac OS X 10_15_7) AppleWebKit/605.1.15 (KHTML, like Gecko) Version/17.0 Safari/605.1.15" etag="CfhxqU4DHaG1E3twgTvN" version="24.5.4" type="github">
  <diagram name="Page-1" id="2a216829-ef6e-dabb-86c1-c78162f3ba2b">
    <mxGraphModel dx="1136" dy="1735" grid="1" gridSize="10" guides="1" tooltips="1" connect="1" arrows="1" fold="1" page="1" pageScale="1" pageWidth="850" pageHeight="1100" background="none" math="0" shadow="0">
      <root>
        <mxCell id="0" />
        <mxCell id="1" parent="0" />
        <mxCell id="26TlRX8QNJJSIPVoDLTe-20" value="Pupile detector" style="swimlane;childLayout=stackLayout;resizeParent=1;resizeParentMax=0;horizontal=0;startSize=20;horizontalStack=0;html=1;" vertex="1" parent="1">
          <mxGeometry x="100" y="40" width="1870" height="610" as="geometry" />
        </mxCell>
        <mxCell id="26TlRX8QNJJSIPVoDLTe-30" style="edgeStyle=orthogonalEdgeStyle;rounded=0;orthogonalLoop=1;jettySize=auto;html=1;" edge="1" parent="26TlRX8QNJJSIPVoDLTe-20" source="26TlRX8QNJJSIPVoDLTe-27" target="26TlRX8QNJJSIPVoDLTe-29">
          <mxGeometry relative="1" as="geometry" />
        </mxCell>
        <mxCell id="26TlRX8QNJJSIPVoDLTe-55" style="edgeStyle=orthogonalEdgeStyle;rounded=0;orthogonalLoop=1;jettySize=auto;html=1;" edge="1" parent="26TlRX8QNJJSIPVoDLTe-20" source="26TlRX8QNJJSIPVoDLTe-51" target="26TlRX8QNJJSIPVoDLTe-49">
          <mxGeometry relative="1" as="geometry">
            <Array as="points">
              <mxPoint x="1625" y="420" />
            </Array>
          </mxGeometry>
        </mxCell>
        <mxCell id="26TlRX8QNJJSIPVoDLTe-52" style="edgeStyle=orthogonalEdgeStyle;rounded=0;orthogonalLoop=1;jettySize=auto;html=1;entryX=0.5;entryY=0;entryDx=0;entryDy=0;" edge="1" parent="26TlRX8QNJJSIPVoDLTe-20" source="26TlRX8QNJJSIPVoDLTe-41" target="26TlRX8QNJJSIPVoDLTe-49">
          <mxGeometry relative="1" as="geometry" />
        </mxCell>
        <mxCell id="26TlRX8QNJJSIPVoDLTe-76" style="edgeStyle=orthogonalEdgeStyle;rounded=0;orthogonalLoop=1;jettySize=auto;html=1;" edge="1" parent="26TlRX8QNJJSIPVoDLTe-20" source="26TlRX8QNJJSIPVoDLTe-49" target="26TlRX8QNJJSIPVoDLTe-50">
          <mxGeometry relative="1" as="geometry">
            <Array as="points">
              <mxPoint x="1220" y="320" />
              <mxPoint x="1350" y="320" />
            </Array>
          </mxGeometry>
        </mxCell>
        <mxCell id="26TlRX8QNJJSIPVoDLTe-77" style="edgeStyle=orthogonalEdgeStyle;rounded=0;orthogonalLoop=1;jettySize=auto;html=1;" edge="1" parent="26TlRX8QNJJSIPVoDLTe-20" source="26TlRX8QNJJSIPVoDLTe-29" target="26TlRX8QNJJSIPVoDLTe-46">
          <mxGeometry relative="1" as="geometry">
            <Array as="points">
              <mxPoint x="325" y="420" />
            </Array>
          </mxGeometry>
        </mxCell>
        <mxCell id="26TlRX8QNJJSIPVoDLTe-75" style="edgeStyle=orthogonalEdgeStyle;rounded=0;orthogonalLoop=1;jettySize=auto;html=1;endArrow=none;endFill=0;dashed=1;dashPattern=1 2;entryX=0.525;entryY=1.014;entryDx=0;entryDy=0;entryPerimeter=0;" edge="1" parent="26TlRX8QNJJSIPVoDLTe-20" source="26TlRX8QNJJSIPVoDLTe-74" target="26TlRX8QNJJSIPVoDLTe-70">
          <mxGeometry relative="1" as="geometry">
            <mxPoint x="1560" y="200" as="targetPoint" />
            <Array as="points">
              <mxPoint x="1760" y="197" />
            </Array>
          </mxGeometry>
        </mxCell>
        <mxCell id="26TlRX8QNJJSIPVoDLTe-21" value="Usuario" style="swimlane;startSize=20;horizontal=0;html=1;" vertex="1" parent="26TlRX8QNJJSIPVoDLTe-20">
          <mxGeometry x="20" width="1850" height="350" as="geometry" />
        </mxCell>
        <mxCell id="26TlRX8QNJJSIPVoDLTe-26" style="edgeStyle=orthogonalEdgeStyle;rounded=0;orthogonalLoop=1;jettySize=auto;html=1;" edge="1" parent="26TlRX8QNJJSIPVoDLTe-21" source="26TlRX8QNJJSIPVoDLTe-24" target="26TlRX8QNJJSIPVoDLTe-25">
          <mxGeometry relative="1" as="geometry">
            <mxPoint x="100" y="130" as="targetPoint" />
          </mxGeometry>
        </mxCell>
        <mxCell id="26TlRX8QNJJSIPVoDLTe-24" value="" style="strokeWidth=2;html=1;shape=mxgraph.flowchart.start_2;whiteSpace=wrap;direction=south;" vertex="1" parent="26TlRX8QNJJSIPVoDLTe-21">
          <mxGeometry x="30" y="105" width="30" height="30" as="geometry" />
        </mxCell>
        <mxCell id="26TlRX8QNJJSIPVoDLTe-47" style="edgeStyle=orthogonalEdgeStyle;rounded=0;orthogonalLoop=1;jettySize=auto;html=1;entryX=0;entryY=0.5;entryDx=0;entryDy=0;" edge="1" parent="26TlRX8QNJJSIPVoDLTe-21" source="26TlRX8QNJJSIPVoDLTe-25" target="26TlRX8QNJJSIPVoDLTe-46">
          <mxGeometry relative="1" as="geometry" />
        </mxCell>
        <mxCell id="26TlRX8QNJJSIPVoDLTe-25" value="Iniciar aplicación" style="rounded=0;whiteSpace=wrap;html=1;direction=west;" vertex="1" parent="26TlRX8QNJJSIPVoDLTe-21">
          <mxGeometry x="80" y="90" width="120" height="60" as="geometry" />
        </mxCell>
        <mxCell id="26TlRX8QNJJSIPVoDLTe-32" style="edgeStyle=orthogonalEdgeStyle;rounded=0;orthogonalLoop=1;jettySize=auto;html=1;entryX=0;entryY=0.5;entryDx=0;entryDy=0;" edge="1" parent="26TlRX8QNJJSIPVoDLTe-21" source="26TlRX8QNJJSIPVoDLTe-27">
          <mxGeometry relative="1" as="geometry">
            <mxPoint x="480" y="120" as="targetPoint" />
          </mxGeometry>
        </mxCell>
        <mxCell id="26TlRX8QNJJSIPVoDLTe-27" value="" style="points=[[0.25,0.25,0],[0.5,0,0],[0.75,0.25,0],[1,0.5,0],[0.75,0.75,0],[0.5,1,0],[0.25,0.75,0],[0,0.5,0]];shape=mxgraph.bpmn.gateway2;html=1;verticalLabelPosition=bottom;labelBackgroundColor=#ffffff;verticalAlign=top;align=center;perimeter=rhombusPerimeter;outlineConnect=0;outline=none;symbol=none;gwType=exclusive;" vertex="1" parent="26TlRX8QNJJSIPVoDLTe-21">
          <mxGeometry x="400" y="95" width="50" height="50" as="geometry" />
        </mxCell>
        <mxCell id="26TlRX8QNJJSIPVoDLTe-28" style="edgeStyle=orthogonalEdgeStyle;rounded=0;orthogonalLoop=1;jettySize=auto;html=1;entryX=0;entryY=0.5;entryDx=0;entryDy=0;entryPerimeter=0;exitX=1;exitY=0.5;exitDx=0;exitDy=0;" edge="1" parent="26TlRX8QNJJSIPVoDLTe-21" source="26TlRX8QNJJSIPVoDLTe-46" target="26TlRX8QNJJSIPVoDLTe-27">
          <mxGeometry relative="1" as="geometry">
            <mxPoint x="370" y="120" as="sourcePoint" />
          </mxGeometry>
        </mxCell>
        <mxCell id="26TlRX8QNJJSIPVoDLTe-36" style="edgeStyle=orthogonalEdgeStyle;rounded=0;orthogonalLoop=1;jettySize=auto;html=1;" edge="1" parent="26TlRX8QNJJSIPVoDLTe-21" source="26TlRX8QNJJSIPVoDLTe-31" target="26TlRX8QNJJSIPVoDLTe-35">
          <mxGeometry relative="1" as="geometry" />
        </mxCell>
        <mxCell id="26TlRX8QNJJSIPVoDLTe-31" value="Calibrar el sistema" style="rounded=0;whiteSpace=wrap;html=1;" vertex="1" parent="26TlRX8QNJJSIPVoDLTe-21">
          <mxGeometry x="480" y="90" width="120" height="60" as="geometry" />
        </mxCell>
        <mxCell id="26TlRX8QNJJSIPVoDLTe-37" style="edgeStyle=orthogonalEdgeStyle;rounded=0;orthogonalLoop=1;jettySize=auto;html=1;" edge="1" parent="26TlRX8QNJJSIPVoDLTe-21" source="26TlRX8QNJJSIPVoDLTe-35" target="26TlRX8QNJJSIPVoDLTe-46">
          <mxGeometry relative="1" as="geometry">
            <Array as="points">
              <mxPoint x="685" y="50" />
              <mxPoint x="305" y="50" />
            </Array>
          </mxGeometry>
        </mxCell>
        <mxCell id="26TlRX8QNJJSIPVoDLTe-61" style="edgeStyle=orthogonalEdgeStyle;rounded=0;orthogonalLoop=1;jettySize=auto;html=1;" edge="1" parent="26TlRX8QNJJSIPVoDLTe-21" source="26TlRX8QNJJSIPVoDLTe-35" target="26TlRX8QNJJSIPVoDLTe-59">
          <mxGeometry relative="1" as="geometry" />
        </mxCell>
        <mxCell id="26TlRX8QNJJSIPVoDLTe-35" value="" style="points=[[0.25,0.25,0],[0.5,0,0],[0.75,0.25,0],[1,0.5,0],[0.75,0.75,0],[0.5,1,0],[0.25,0.75,0],[0,0.5,0]];shape=mxgraph.bpmn.gateway2;html=1;verticalLabelPosition=bottom;labelBackgroundColor=#ffffff;verticalAlign=top;align=center;perimeter=rhombusPerimeter;outlineConnect=0;outline=none;symbol=none;gwType=exclusive;" vertex="1" parent="26TlRX8QNJJSIPVoDLTe-21">
          <mxGeometry x="660" y="95" width="50" height="50" as="geometry" />
        </mxCell>
        <mxCell id="26TlRX8QNJJSIPVoDLTe-38" value="Calibración incorrecta" style="text;html=1;align=center;verticalAlign=middle;resizable=0;points=[];autosize=1;strokeColor=none;fillColor=none;" vertex="1" parent="26TlRX8QNJJSIPVoDLTe-21">
          <mxGeometry x="540" y="20" width="140" height="30" as="geometry" />
        </mxCell>
        <mxCell id="26TlRX8QNJJSIPVoDLTe-46" value="Selecciona modo de control" style="whiteSpace=wrap;html=1;" vertex="1" parent="26TlRX8QNJJSIPVoDLTe-21">
          <mxGeometry x="245" y="90" width="120" height="60" as="geometry" />
        </mxCell>
        <mxCell id="26TlRX8QNJJSIPVoDLTe-83" style="edgeStyle=orthogonalEdgeStyle;rounded=0;orthogonalLoop=1;jettySize=auto;html=1;" edge="1" parent="26TlRX8QNJJSIPVoDLTe-21" source="26TlRX8QNJJSIPVoDLTe-39" target="26TlRX8QNJJSIPVoDLTe-59">
          <mxGeometry relative="1" as="geometry">
            <Array as="points">
              <mxPoint x="1510" y="42" />
              <mxPoint x="1510" y="-50" />
              <mxPoint x="850" y="-50" />
            </Array>
          </mxGeometry>
        </mxCell>
        <mxCell id="26TlRX8QNJJSIPVoDLTe-39" value="Controlar cursor con la vista" style="whiteSpace=wrap;html=1;" vertex="1" parent="26TlRX8QNJJSIPVoDLTe-21">
          <mxGeometry x="1100" y="12" width="120" height="60" as="geometry" />
        </mxCell>
        <mxCell id="26TlRX8QNJJSIPVoDLTe-71" style="edgeStyle=orthogonalEdgeStyle;rounded=0;orthogonalLoop=1;jettySize=auto;html=1;" edge="1" parent="26TlRX8QNJJSIPVoDLTe-21" source="26TlRX8QNJJSIPVoDLTe-43" target="26TlRX8QNJJSIPVoDLTe-27">
          <mxGeometry relative="1" as="geometry">
            <Array as="points">
              <mxPoint x="1280" y="120" />
              <mxPoint x="1280" y="-80" />
              <mxPoint x="425" y="-80" />
            </Array>
          </mxGeometry>
        </mxCell>
        <mxCell id="26TlRX8QNJJSIPVoDLTe-43" value="Cambiar modo de control" style="whiteSpace=wrap;html=1;" vertex="1" parent="26TlRX8QNJJSIPVoDLTe-21">
          <mxGeometry x="1100" y="90" width="120" height="60" as="geometry" />
        </mxCell>
        <mxCell id="26TlRX8QNJJSIPVoDLTe-41" value="Realizar test de calibración" style="whiteSpace=wrap;html=1;" vertex="1" parent="26TlRX8QNJJSIPVoDLTe-21">
          <mxGeometry x="1100" y="190" width="120" height="60" as="geometry" />
        </mxCell>
        <mxCell id="26TlRX8QNJJSIPVoDLTe-50" value="Observa punto objetivo" style="whiteSpace=wrap;html=1;" vertex="1" parent="26TlRX8QNJJSIPVoDLTe-21">
          <mxGeometry x="1270" y="167" width="120" height="60" as="geometry" />
        </mxCell>
        <mxCell id="26TlRX8QNJJSIPVoDLTe-69" style="edgeStyle=orthogonalEdgeStyle;rounded=0;orthogonalLoop=1;jettySize=auto;html=1;" edge="1" parent="26TlRX8QNJJSIPVoDLTe-21" source="26TlRX8QNJJSIPVoDLTe-51" target="26TlRX8QNJJSIPVoDLTe-59">
          <mxGeometry relative="1" as="geometry">
            <Array as="points">
              <mxPoint x="1750" y="197" />
              <mxPoint x="1750" y="-20" />
              <mxPoint x="870" y="-20" />
            </Array>
          </mxGeometry>
        </mxCell>
        <mxCell id="26TlRX8QNJJSIPVoDLTe-51" value="" style="points=[[0.25,0.25,0],[0.5,0,0],[0.75,0.25,0],[1,0.5,0],[0.75,0.75,0],[0.5,1,0],[0.25,0.75,0],[0,0.5,0]];shape=mxgraph.bpmn.gateway2;html=1;verticalLabelPosition=bottom;labelBackgroundColor=#ffffff;verticalAlign=top;align=center;perimeter=rhombusPerimeter;outlineConnect=0;outline=none;symbol=none;gwType=exclusive;" vertex="1" parent="26TlRX8QNJJSIPVoDLTe-21">
          <mxGeometry x="1580" y="172" width="50" height="50" as="geometry" />
        </mxCell>
        <mxCell id="26TlRX8QNJJSIPVoDLTe-62" style="edgeStyle=orthogonalEdgeStyle;rounded=0;orthogonalLoop=1;jettySize=auto;html=1;" edge="1" parent="26TlRX8QNJJSIPVoDLTe-21" source="26TlRX8QNJJSIPVoDLTe-59" target="26TlRX8QNJJSIPVoDLTe-60">
          <mxGeometry relative="1" as="geometry" />
        </mxCell>
        <mxCell id="26TlRX8QNJJSIPVoDLTe-59" value="Sistema preparado" style="rounded=0;whiteSpace=wrap;html=1;" vertex="1" parent="26TlRX8QNJJSIPVoDLTe-21">
          <mxGeometry x="810" y="90" width="120" height="60" as="geometry" />
        </mxCell>
        <mxCell id="26TlRX8QNJJSIPVoDLTe-63" style="edgeStyle=orthogonalEdgeStyle;rounded=0;orthogonalLoop=1;jettySize=auto;html=1;" edge="1" parent="26TlRX8QNJJSIPVoDLTe-21" source="26TlRX8QNJJSIPVoDLTe-60" target="26TlRX8QNJJSIPVoDLTe-43">
          <mxGeometry relative="1" as="geometry" />
        </mxCell>
        <mxCell id="26TlRX8QNJJSIPVoDLTe-66" style="edgeStyle=orthogonalEdgeStyle;rounded=0;orthogonalLoop=1;jettySize=auto;html=1;" edge="1" parent="26TlRX8QNJJSIPVoDLTe-21" source="26TlRX8QNJJSIPVoDLTe-60" target="26TlRX8QNJJSIPVoDLTe-39">
          <mxGeometry relative="1" as="geometry">
            <Array as="points">
              <mxPoint x="995" y="42" />
            </Array>
          </mxGeometry>
        </mxCell>
        <mxCell id="26TlRX8QNJJSIPVoDLTe-86" style="edgeStyle=orthogonalEdgeStyle;rounded=0;orthogonalLoop=1;jettySize=auto;html=1;" edge="1" parent="26TlRX8QNJJSIPVoDLTe-21">
          <mxGeometry relative="1" as="geometry">
            <mxPoint x="995.0344827586209" y="149.9955172413793" as="sourcePoint" />
            <mxPoint x="1100" y="215.06448275862093" as="targetPoint" />
            <Array as="points">
              <mxPoint x="995" y="215.03" />
            </Array>
          </mxGeometry>
        </mxCell>
        <mxCell id="26TlRX8QNJJSIPVoDLTe-60" value="" style="points=[[0.25,0.25,0],[0.5,0,0],[0.75,0.25,0],[1,0.5,0],[0.75,0.75,0],[0.5,1,0],[0.25,0.75,0],[0,0.5,0]];shape=mxgraph.bpmn.gateway2;html=1;verticalLabelPosition=bottom;labelBackgroundColor=#ffffff;verticalAlign=top;align=center;perimeter=rhombusPerimeter;outlineConnect=0;outline=none;symbol=none;gwType=exclusive;" vertex="1" parent="26TlRX8QNJJSIPVoDLTe-21">
          <mxGeometry x="970" y="95" width="50" height="50" as="geometry" />
        </mxCell>
        <mxCell id="26TlRX8QNJJSIPVoDLTe-68" value="Calibración&amp;nbsp;&lt;div&gt;correcta&lt;/div&gt;" style="text;html=1;align=left;verticalAlign=middle;resizable=0;points=[];autosize=1;strokeColor=none;fillColor=none;" vertex="1" parent="26TlRX8QNJJSIPVoDLTe-21">
          <mxGeometry x="720" y="85" width="90" height="40" as="geometry" />
        </mxCell>
        <mxCell id="26TlRX8QNJJSIPVoDLTe-73" style="edgeStyle=orthogonalEdgeStyle;rounded=0;orthogonalLoop=1;jettySize=auto;html=1;entryX=0;entryY=0.5;entryDx=0;entryDy=0;entryPerimeter=0;" edge="1" parent="26TlRX8QNJJSIPVoDLTe-21" source="26TlRX8QNJJSIPVoDLTe-50" target="26TlRX8QNJJSIPVoDLTe-51">
          <mxGeometry relative="1" as="geometry" />
        </mxCell>
        <mxCell id="26TlRX8QNJJSIPVoDLTe-70" value="No quedan puntos" style="text;html=1;align=center;verticalAlign=middle;resizable=0;points=[];autosize=1;strokeColor=none;fillColor=none;" vertex="1" parent="26TlRX8QNJJSIPVoDLTe-21">
          <mxGeometry x="1630" y="167" width="120" height="30" as="geometry" />
        </mxCell>
        <mxCell id="26TlRX8QNJJSIPVoDLTe-90" style="edgeStyle=orthogonalEdgeStyle;rounded=0;orthogonalLoop=1;jettySize=auto;html=1;endArrow=none;endFill=0;dashed=1;dashPattern=1 2;" edge="1" parent="26TlRX8QNJJSIPVoDLTe-21">
          <mxGeometry relative="1" as="geometry">
            <mxPoint x="1650" y="197" as="targetPoint" />
            <mxPoint x="1650.034482758621" y="497" as="sourcePoint" />
          </mxGeometry>
        </mxCell>
        <mxCell id="26TlRX8QNJJSIPVoDLTe-87" style="edgeStyle=orthogonalEdgeStyle;rounded=0;orthogonalLoop=1;jettySize=auto;html=1;" edge="1" parent="26TlRX8QNJJSIPVoDLTe-20" source="26TlRX8QNJJSIPVoDLTe-60" target="26TlRX8QNJJSIPVoDLTe-85">
          <mxGeometry relative="1" as="geometry">
            <Array as="points">
              <mxPoint x="1015" y="510" />
            </Array>
          </mxGeometry>
        </mxCell>
        <mxCell id="26TlRX8QNJJSIPVoDLTe-88" style="edgeStyle=orthogonalEdgeStyle;rounded=0;orthogonalLoop=1;jettySize=auto;html=1;" edge="1" parent="26TlRX8QNJJSIPVoDLTe-20" source="26TlRX8QNJJSIPVoDLTe-85" target="26TlRX8QNJJSIPVoDLTe-59">
          <mxGeometry relative="1" as="geometry">
            <Array as="points">
              <mxPoint x="1180" y="570" />
              <mxPoint x="890" y="570" />
            </Array>
          </mxGeometry>
        </mxCell>
        <mxCell id="26TlRX8QNJJSIPVoDLTe-22" value="Aplicación" style="swimlane;startSize=20;horizontal=0;html=1;" vertex="1" parent="26TlRX8QNJJSIPVoDLTe-20">
          <mxGeometry x="20" y="350" width="1850" height="260" as="geometry" />
        </mxCell>
        <mxCell id="26TlRX8QNJJSIPVoDLTe-29" value="Mostrar mapa de calor" style="rounded=0;whiteSpace=wrap;html=1;" vertex="1" parent="26TlRX8QNJJSIPVoDLTe-22">
          <mxGeometry x="365" y="40" width="120" height="60" as="geometry" />
        </mxCell>
        <mxCell id="26TlRX8QNJJSIPVoDLTe-49" value="Muestra punto objetivo" style="whiteSpace=wrap;html=1;" vertex="1" parent="26TlRX8QNJJSIPVoDLTe-22">
          <mxGeometry x="1100" y="20" width="120" height="60" as="geometry" />
        </mxCell>
        <mxCell id="26TlRX8QNJJSIPVoDLTe-56" value="Quedan puntos por representar" style="text;html=1;align=center;verticalAlign=middle;resizable=0;points=[];autosize=1;strokeColor=none;fillColor=none;" vertex="1" parent="26TlRX8QNJJSIPVoDLTe-22">
          <mxGeometry x="1230" y="40" width="190" height="30" as="geometry" />
        </mxCell>
        <mxCell id="26TlRX8QNJJSIPVoDLTe-74" value="" style="sketch=0;pointerEvents=1;shadow=0;dashed=0;html=1;strokeColor=none;fillColor=#505050;labelPosition=center;verticalLabelPosition=bottom;verticalAlign=top;outlineConnect=0;align=center;shape=mxgraph.office.concepts.document;" vertex="1" parent="26TlRX8QNJJSIPVoDLTe-22">
          <mxGeometry x="1720" y="150" width="40" height="47" as="geometry" />
        </mxCell>
        <mxCell id="26TlRX8QNJJSIPVoDLTe-79" value="" style="shape=datastore;html=1;labelPosition=center;verticalLabelPosition=bottom;align=center;verticalAlign=top;" vertex="1" parent="26TlRX8QNJJSIPVoDLTe-22">
          <mxGeometry x="1625" y="150" width="50" height="47" as="geometry" />
        </mxCell>
        <mxCell id="26TlRX8QNJJSIPVoDLTe-85" value="Mostrar mapa de calor" style="whiteSpace=wrap;html=1;" vertex="1" parent="26TlRX8QNJJSIPVoDLTe-22">
          <mxGeometry x="1100" y="130" width="120" height="60" as="geometry" />
        </mxCell>
        <mxCell id="26TlRX8QNJJSIPVoDLTe-92" style="edgeStyle=orthogonalEdgeStyle;rounded=0;orthogonalLoop=1;jettySize=auto;html=1;endArrow=none;endFill=0;dashed=1;dashPattern=1 2;" edge="1" parent="26TlRX8QNJJSIPVoDLTe-22" source="26TlRX8QNJJSIPVoDLTe-91">
          <mxGeometry relative="1" as="geometry">
            <mxPoint x="1445" y="-310" as="targetPoint" />
          </mxGeometry>
        </mxCell>
        <mxCell id="26TlRX8QNJJSIPVoDLTe-91" value="" style="shape=datastore;html=1;labelPosition=center;verticalLabelPosition=bottom;align=center;verticalAlign=top;" vertex="1" parent="26TlRX8QNJJSIPVoDLTe-22">
          <mxGeometry x="1420" y="150" width="50" height="47" as="geometry" />
        </mxCell>
        <mxCell id="26TlRX8QNJJSIPVoDLTe-93" value="Punto inferido" style="text;html=1;align=center;verticalAlign=middle;resizable=0;points=[];autosize=1;strokeColor=none;fillColor=none;" vertex="1" parent="26TlRX8QNJJSIPVoDLTe-22">
          <mxGeometry x="1395" y="197" width="100" height="30" as="geometry" />
        </mxCell>
        <mxCell id="26TlRX8QNJJSIPVoDLTe-94" value="Resultados" style="text;html=1;align=center;verticalAlign=middle;resizable=0;points=[];autosize=1;strokeColor=none;fillColor=none;" vertex="1" parent="26TlRX8QNJJSIPVoDLTe-22">
          <mxGeometry x="1610" y="197" width="80" height="30" as="geometry" />
        </mxCell>
        <mxCell id="26TlRX8QNJJSIPVoDLTe-95" value="CSV con&lt;div&gt;resultados&lt;/div&gt;" style="text;html=1;align=center;verticalAlign=middle;resizable=0;points=[];autosize=1;strokeColor=none;fillColor=none;" vertex="1" parent="26TlRX8QNJJSIPVoDLTe-22">
          <mxGeometry x="1700" y="192" width="80" height="40" as="geometry" />
        </mxCell>
      </root>
    </mxGraphModel>
  </diagram>
</mxfile>
